<?xml version="1.0" encoding="UTF-8"?>
<svg id="Layer_1" xmlns="http://www.w3.org/2000/svg" viewBox="0 0 640.33 313.3">
  <defs>
    <style>
      .cls-1 {
        letter-spacing: .42em;
      }

      .cls-2 {
        letter-spacing: -.07em;
      }

      .cls-3 {
        font-size: 24.92px;
      }

      .cls-3, .cls-4, .cls-5 {
        fill: #dce4ea;
      }

      .cls-3, .cls-5 {
        font-family: HelveticaNeue-Medium, 'Helvetica Neue';
        font-weight: 500;
      }

      .cls-6 {
        letter-spacing: -.06em;
      }

      .cls-7 {
        letter-spacing: .41em;
      }

      .cls-8 {
        letter-spacing: -.07em;
      }

      .cls-9 {
        letter-spacing: .43em;
      }

      .cls-10 {
        letter-spacing: .43em;
      }

      .cls-11 {
        letter-spacing: -.07em;
      }

      .cls-12 {
        letter-spacing: .42em;
      }

      .cls-13 {
        letter-spacing: -.08em;
      }

      .cls-14 {
        letter-spacing: -.17em;
      }

      .cls-15 {
        letter-spacing: .42em;
      }

      .cls-16 {
        letter-spacing: -.07em;
      }

      .cls-17 {
        letter-spacing: .41em;
      }

      .cls-18 {
        letter-spacing: .43em;
      }

      .cls-5 {
        font-size: 160.33px;
      }

      .cls-19 {
        letter-spacing: -.07em;
      }

      .cls-20 {
        letter-spacing: -.06em;
      }

      .cls-21 {
        letter-spacing: .43em;
      }
    </style>
  </defs>
  <g>
    <g>
      <polygon class="cls-4" points="231.02 23.14 231.02 239.92 169.08 301.75 169.08 270.78 138.12 301.75 3.27 301.75 65.1 239.82 169.08 239.82 169.08 84.98 231.02 23.14"/>
      <polygon class="cls-4" points="227.75 19.88 165.92 81.81 61.93 81.81 61.93 236.55 0 298.49 0 81.72 61.93 19.88 61.93 50.85 92.9 19.88 227.75 19.88"/>
    </g>
    <text class="cls-5" transform="translate(247.99 136.28)"><tspan class="cls-14" x="0" y="0">T</tspan><tspan class="cls-8" x="67.11" y="0">e</tspan><tspan class="cls-16" x="145.48" y="0">r</tspan><tspan class="cls-6" x="190.37" y="0">a</tspan><tspan class="cls-13" x="0" y="128.27">C</tspan><tspan class="cls-2" x="103.48" y="128.27">o</tspan><tspan class="cls-11" x="187.25" y="128.27">r</tspan><tspan class="cls-19" x="231.71" y="128.27">e</tspan><tspan class="cls-20" x="309.13" y="128.27">s</tspan></text>
  </g>
  <text class="cls-3" transform="translate(271.34 306.15)"><tspan class="cls-9" x="0" y="0">A </tspan><tspan class="cls-12" x="44.99" y="0">T</tspan><tspan class="cls-7" x="70.3" y="0">E</tspan><tspan class="cls-1" x="96.2" y="0">C</tspan><tspan class="cls-9" x="124.78" y="0">H </tspan><tspan class="cls-15" x="171.13" y="0">C</tspan><tspan class="cls-21" x="199.7" y="0">O</tspan><tspan class="cls-18" x="229.25" y="0">M</tspan><tspan class="cls-10" x="262.16" y="0">A</tspan><tspan class="cls-17" x="289.48" y="0">P</tspan><tspan class="cls-18" x="316.33" y="0">N</tspan><tspan class="cls-9" x="345.08" y="0">Y</tspan></text>
</svg>