<svg width="620" height="620" viewBox="0 0 620 620" fill="none" xmlns="http://www.w3.org/2000/svg">
<g filter="url(#filter0_dd_1_32)">
<path d="M333.893 566H286.107C278.294 565.993 270.754 563.124 264.913 557.935C259.072 552.746 255.334 545.598 254.405 537.84L249.307 497.819C239.232 494.549 229.431 490.49 219.995 485.68L188.123 510.448C181.969 515.285 174.248 517.686 166.436 517.19C158.624 516.694 151.269 513.337 145.776 507.76L112.176 474.16C106.63 468.673 103.298 461.335 102.818 453.547C102.338 445.76 104.743 438.068 109.573 431.941L134.341 400.048C129.513 390.62 125.454 380.817 122.203 370.736L82.096 365.637C74.3483 364.68 67.217 360.926 62.043 355.08C56.869 349.234 54.0087 341.7 54 333.893L54 286.107C54 269.957 66.096 256.325 82.16 254.405L122.181 249.307C125.451 239.232 129.51 229.431 134.32 219.995L109.573 188.123C104.724 181.968 102.318 174.24 102.818 166.42C103.318 158.6 106.689 151.241 112.283 145.755L145.883 112.155C151.373 106.613 158.71 103.284 166.496 102.804C174.282 102.324 181.972 104.726 188.101 109.552L219.973 134.341C229.416 129.528 239.224 125.469 249.307 122.203L254.405 82.096C256.325 66.096 269.957 54 286.107 54H333.893C350.043 54 363.675 66.096 365.595 82.16L370.693 122.181C380.891 125.488 390.704 129.563 400.027 134.32L431.899 109.552C438.051 104.708 445.776 102.306 453.59 102.806C461.405 103.306 468.76 106.673 474.245 112.261L507.845 145.861C519.301 156.976 520.453 175.173 510.448 188.08L485.68 219.973C490.459 229.296 494.533 239.109 497.819 249.285L537.925 254.384C545.667 255.341 552.793 259.093 557.963 264.935C563.133 270.777 565.991 278.306 566 286.107V333.893C566 350.043 553.904 363.675 537.84 365.595L497.819 370.693C494.549 380.768 490.49 390.569 485.68 400.005L510.448 431.877C515.292 438.03 517.694 445.754 517.194 453.569C516.694 461.384 513.327 468.739 507.739 474.224L474.139 507.824C468.654 513.375 461.315 516.709 453.526 517.189C445.738 517.669 438.045 515.262 431.92 510.427L400.027 485.659C390.598 490.487 380.796 494.546 370.715 497.797L365.616 537.904C364.664 545.65 360.914 552.781 355.072 557.955C349.229 563.13 341.698 565.991 333.893 566ZM218.907 462.32C220.677 462.32 222.491 462.768 224.112 463.664C236.085 470.329 248.783 475.597 261.957 479.365C263.96 479.94 265.751 481.089 267.108 482.67C268.465 484.251 269.33 486.195 269.595 488.261L275.568 535.195C276.208 540.549 280.837 544.667 286.107 544.667H333.893C336.48 544.632 338.967 543.666 340.899 541.946C342.83 540.225 344.077 537.866 344.411 535.301L350.405 488.283C350.67 486.216 351.535 484.272 352.892 482.691C354.249 481.11 356.04 479.962 358.043 479.387C371.217 475.618 383.915 470.35 395.888 463.685C397.715 462.665 399.803 462.205 401.89 462.365C403.977 462.524 405.97 463.295 407.621 464.581L444.955 493.595C446.965 495.213 449.502 496.034 452.08 495.9C454.658 495.766 457.096 494.687 458.928 492.869L492.741 459.056C494.591 457.224 495.699 454.774 495.853 452.175C496.006 449.577 495.195 447.013 493.573 444.976L464.56 407.643C463.276 405.99 462.507 403.997 462.348 401.911C462.188 399.824 462.646 397.737 463.664 395.909C470.329 383.937 475.597 371.238 479.365 358.064C479.94 356.061 481.089 354.271 482.67 352.913C484.251 351.556 486.195 350.692 488.261 350.427L535.195 344.453C537.781 344.13 540.163 342.883 541.904 340.943C543.644 339.003 544.625 336.499 544.667 333.893V286.107C544.632 283.52 543.666 281.033 541.946 279.101C540.225 277.17 537.866 275.923 535.301 275.589L488.283 269.595C486.216 269.33 484.272 268.465 482.691 267.108C481.11 265.751 479.962 263.96 479.387 261.957C475.618 248.783 470.35 236.085 463.685 224.112C462.659 222.286 462.197 220.198 462.356 218.11C462.516 216.021 463.29 214.027 464.581 212.379L493.595 175.045C495.219 173.042 496.045 170.51 495.915 167.934C495.786 165.359 494.708 162.923 492.891 161.093L459.077 127.28C457.253 125.417 454.801 124.3 452.198 124.147C449.595 123.993 447.028 124.813 444.997 126.448L407.664 155.461C406.01 156.749 404.012 157.521 401.922 157.681C399.831 157.84 397.74 157.38 395.909 156.357C383.939 149.687 371.24 144.418 358.064 140.656C356.061 140.081 354.271 138.932 352.913 137.351C351.556 135.771 350.692 133.827 350.427 131.76L344.453 84.8267C344.135 82.2366 342.89 79.8491 340.949 78.1044C339.009 76.3597 336.503 75.3756 333.893 75.3333H286.107C283.52 75.3682 281.033 76.3343 279.101 78.0545C277.17 79.7747 275.923 82.1336 275.589 84.6987L269.595 131.717C269.328 133.786 268.464 135.732 267.107 137.316C265.75 138.9 263.96 140.053 261.957 140.635C248.782 144.39 236.083 149.651 224.112 156.315C222.284 157.34 220.193 157.804 218.103 157.648C216.012 157.493 214.014 156.725 212.357 155.44L175.024 126.427C173.021 124.802 170.489 123.976 167.913 124.106C165.338 124.236 162.901 125.313 161.072 127.131L127.259 160.965C125.409 162.797 124.301 165.247 124.147 167.846C123.994 170.445 124.805 173.009 126.427 175.045L155.44 212.379C156.724 214.031 157.493 216.024 157.652 218.111C157.812 220.197 157.354 222.284 156.336 224.112C149.662 236.08 144.394 248.78 140.635 261.957C140.06 263.96 138.911 265.751 137.33 267.108C135.749 268.465 133.805 269.33 131.739 269.595L84.8053 275.568C82.2191 275.882 79.8345 277.123 78.0929 279.061C76.3514 280.999 75.371 283.502 75.3333 286.107V333.893C75.3333 339.163 79.4507 343.792 84.6987 344.411L131.717 350.405C133.784 350.67 135.728 351.535 137.309 352.892C138.89 354.249 140.039 356.04 140.613 358.043C144.453 371.397 149.744 384.133 156.315 395.888C157.341 397.714 157.803 399.802 157.644 401.89C157.484 403.979 156.71 405.973 155.419 407.621L126.405 444.955C124.781 446.958 123.955 449.49 124.085 452.066C124.214 454.641 125.292 457.077 127.109 458.907L160.923 492.72C162.752 494.574 165.203 495.685 167.803 495.839C170.403 495.992 172.968 495.178 175.003 493.552L212.336 464.539C214.229 463.109 216.534 462.331 218.907 462.32Z" fill="white"/>
<path d="M310 416.667C251.184 416.667 203.333 368.816 203.333 310C203.333 251.184 251.184 203.333 310 203.333C368.816 203.333 416.667 251.184 416.667 310C416.667 368.816 368.816 416.667 310 416.667ZM310 224.667C262.939 224.667 224.667 262.939 224.667 310C224.667 357.061 262.939 395.333 310 395.333C357.061 395.333 395.333 357.061 395.333 310C395.333 262.939 357.061 224.667 310 224.667Z" fill="white"/>
</g>
<defs>
<filter id="filter0_dd_1_32" x="0" y="0" width="620" height="620" filterUnits="userSpaceOnUse" color-interpolation-filters="sRGB">
<feFlood flood-opacity="0" result="BackgroundImageFix"/>
<feColorMatrix in="SourceAlpha" type="matrix" values="0 0 0 0 0 0 0 0 0 0 0 0 0 0 0 0 0 0 127 0" result="hardAlpha"/>
<feOffset/>
<feGaussianBlur stdDeviation="27"/>
<feComposite in2="hardAlpha" operator="out"/>
<feColorMatrix type="matrix" values="0 0 0 0 1 0 0 0 0 1 0 0 0 0 1 0 0 0 0.25 0"/>
<feBlend mode="normal" in2="BackgroundImageFix" result="effect1_dropShadow_1_32"/>
<feColorMatrix in="SourceAlpha" type="matrix" values="0 0 0 0 0 0 0 0 0 0 0 0 0 0 0 0 0 0 127 0" result="hardAlpha"/>
<feOffset/>
<feGaussianBlur stdDeviation="27"/>
<feComposite in2="hardAlpha" operator="out"/>
<feColorMatrix type="matrix" values="0 0 0 0 1 0 0 0 0 1 0 0 0 0 1 0 0 0 0.25 0"/>
<feBlend mode="normal" in2="effect1_dropShadow_1_32" result="effect2_dropShadow_1_32"/>
<feBlend mode="normal" in="SourceGraphic" in2="effect2_dropShadow_1_32" result="shape"/>
</filter>
</defs>
</svg>
