<svg width="620" height="620" viewBox="0 0 620 620" fill="none" xmlns="http://www.w3.org/2000/svg">
<g filter="url(#filter0_dd_1_3)">
<path d="M491.019 128.981C442.667 80.628 378.38 54 310 54C241.62 54 177.332 80.628 128.981 128.98C80.628 177.332 54 241.62 54 310C54 378.38 80.628 442.667 128.981 491.019C177.332 539.371 241.62 565.999 310 565.999C378.381 565.999 442.667 539.371 491.02 491.018C539.371 442.667 566 378.379 566 309.999C566 241.619 539.371 177.332 491.019 128.981ZM150.216 150.216C172.727 127.705 199.154 110.535 227.958 99.328C220.286 108.906 213.107 119.915 206.528 132.297C198.887 146.677 192.294 162.47 186.803 179.339C167.781 176.182 150.156 172.3 134.41 167.744C139.376 161.635 144.651 155.785 150.216 150.216ZM116.229 193.585C134.646 199.482 155.708 204.455 178.69 208.394C172.29 235.56 168.523 264.793 167.624 294.985H84.536C86.896 258.752 97.778 224.172 116.229 193.585ZM114.594 423.638C97.139 393.739 86.825 360.157 84.535 325.015H167.681C168.663 354.344 172.355 382.746 178.539 409.201C155.085 413.003 133.494 417.85 114.594 423.638ZM150.216 469.784C143.887 463.452 137.933 456.755 132.385 449.729C148.708 445.203 166.956 441.37 186.599 438.296C192.129 455.399 198.793 471.401 206.527 485.958C213.697 499.451 221.58 511.307 230.037 521.463C200.427 510.28 173.268 492.834 150.216 469.784ZM294.984 532.115C272.176 525.726 250.6 504.898 233.048 471.866C226.909 460.314 221.517 447.711 216.898 434.279C241.628 431.557 267.943 429.948 294.984 429.57V532.115ZM294.984 399.537C264.996 399.946 235.767 401.829 208.394 405.044C202.356 380.083 198.723 353.066 197.726 325.016H294.985V399.537H294.984ZM294.984 294.984H197.669C198.58 266.15 202.271 238.379 208.497 212.783C235.695 216.183 264.863 218.251 294.984 218.843V294.984ZM294.984 188.808C267.838 188.261 241.581 186.491 217.026 183.603C221.617 170.311 226.967 157.835 233.048 146.388C250.599 113.356 272.176 92.528 294.984 86.139V188.808ZM504.717 195.18C522.591 225.373 533.144 259.379 535.466 294.984H452.378C451.489 265.14 447.794 236.235 441.528 209.337C464.661 205.601 485.984 200.848 504.717 195.18ZM469.783 150.216C475.764 156.204 481.411 162.516 486.697 169.126C470.624 173.515 452.725 177.24 433.493 180.238C427.945 163.03 421.25 146.933 413.473 132.297C406.894 119.915 399.715 108.906 392.043 99.328C420.845 110.535 447.273 127.705 469.783 150.216ZM325.016 325.016H422.275C421.271 353.284 417.589 380.506 411.465 405.628C384.271 402.247 355.116 400.198 325.016 399.622V325.016ZM325.016 294.984V218.943C355.021 218.549 384.273 216.682 411.672 213.479C417.797 238.882 421.428 266.411 422.331 294.984H325.016ZM325.014 86.139H325.015C347.823 92.528 369.399 113.356 386.951 146.388C393.129 158.015 398.552 170.706 403.191 184.236C378.428 186.948 352.083 188.545 325.014 188.91V86.139ZM325.016 532.115V429.657C352.136 430.189 378.373 431.943 402.919 434.813C398.34 448.045 393.008 460.467 386.952 471.866C369.4 504.898 347.824 525.726 325.016 532.115ZM469.783 469.784C446.732 492.835 419.573 510.28 389.962 521.462C398.419 511.306 406.302 499.451 413.472 485.958C421.092 471.617 427.67 455.87 433.152 439.052C452.617 442.265 470.625 446.238 486.667 450.911C481.389 457.507 475.753 463.807 469.783 469.784ZM504.606 425.009C485.971 419.018 464.606 413.977 441.28 409.999C447.576 383.319 451.328 354.639 452.321 325.016H535.467C533.139 360.694 522.549 394.769 504.606 425.009Z" fill="white"/>
</g>
<defs>
<filter id="filter0_dd_1_3" x="0" y="0" width="620" height="619.999" filterUnits="userSpaceOnUse" color-interpolation-filters="sRGB">
<feFlood flood-opacity="0" result="BackgroundImageFix"/>
<feColorMatrix in="SourceAlpha" type="matrix" values="0 0 0 0 0 0 0 0 0 0 0 0 0 0 0 0 0 0 127 0" result="hardAlpha"/>
<feOffset/>
<feGaussianBlur stdDeviation="22"/>
<feComposite in2="hardAlpha" operator="out"/>
<feColorMatrix type="matrix" values="0 0 0 0 1 0 0 0 0 1 0 0 0 0 1 0 0 0 0.25 0"/>
<feBlend mode="normal" in2="BackgroundImageFix" result="effect1_dropShadow_1_3"/>
<feColorMatrix in="SourceAlpha" type="matrix" values="0 0 0 0 0 0 0 0 0 0 0 0 0 0 0 0 0 0 127 0" result="hardAlpha"/>
<feOffset/>
<feGaussianBlur stdDeviation="27"/>
<feComposite in2="hardAlpha" operator="out"/>
<feColorMatrix type="matrix" values="0 0 0 0 1 0 0 0 0 1 0 0 0 0 1 0 0 0 0.25 0"/>
<feBlend mode="normal" in2="effect1_dropShadow_1_3" result="effect2_dropShadow_1_3"/>
<feBlend mode="normal" in="SourceGraphic" in2="effect2_dropShadow_1_3" result="shape"/>
</filter>
</defs>
</svg>
